<?xml version="1.0" encoding="UTF-8"?>
<svg width="128" height="128" version="1.1" viewBox="0 0 128 128" xmlns="http://www.w3.org/2000/svg">
  <defs>
    <!-- Shadow filter for 3D depth -->
    <filter id="shadow" x="-0.2" y="-0.2" width="1.4" height="1.4">
      <feGaussianBlur in="SourceAlpha" stdDeviation="4"/>
      <feOffset dx="0" dy="4" result="offsetblur"/>
      <feComponentTransfer>
        <feFuncA type="linear" slope="0.4"/>
      </feComponentTransfer>
      <feMerge>
        <feMergeNode/>
        <feMergeNode in="SourceGraphic"/>
      </feMerge>
    </filter>
    
    <!-- Inner shadow for depth -->
    <filter id="innerShadow">
      <feGaussianBlur in="SourceAlpha" stdDeviation="2"/>
      <feOffset dx="0" dy="-2"/>
      <feComposite in2="SourceAlpha" operator="arithmetic" k2="-1" k3="1"/>
      <feColorMatrix values="0 0 0 0 0 0 0 0 0 0 0 0 0 0 0 0 0 0 0.2 0"/>
      <feBlend in2="SourceGraphic" mode="multiply"/>
    </filter>
  </defs>
  
  <!-- Background base with 3D effect -->
  <g filter="url(#shadow)">
    <!-- Main rounded square base -->
    <rect x="12" y="12" width="104" height="104" rx="20" ry="20" fill="#2e3440" opacity="0.95"/>
    
    <!-- 3D perspective grid container -->
    <g transform="translate(20, 16)">
      <!-- Top edge highlight for 3D effect -->
      <rect x="0" y="0" width="88" height="4" rx="2" fill="#4c566a" opacity="0.6"/>
      
      <!-- Left edge highlight -->
      <rect x="0" y="4" width="4" height="88" rx="2" fill="#4c566a" opacity="0.4"/>
      
      <!-- Main grid with 3D depth -->
      <g transform="translate(4, 4)">
        <!-- Quadrant 1: Urgent & Important (Top Left) - Red -->
        <rect x="2" y="2" width="38" height="38" rx="4" fill="#bf616a"/>
        <rect x="2" y="2" width="38" height="2" rx="1" fill="#d08770" opacity="0.5"/>
        <rect x="2" y="2" width="2" height="38" rx="1" fill="#d08770" opacity="0.3"/>
        
        <!-- Quadrant 2: Important, Not Urgent (Top Right) - Orange -->
        <rect x="44" y="2" width="38" height="38" rx="4" fill="#d08770"/>
        <rect x="44" y="2" width="38" height="2" rx="1" fill="#ebcb8b" opacity="0.5"/>
        <rect x="44" y="2" width="2" height="38" rx="1" fill="#ebcb8b" opacity="0.3"/>
        
        <!-- Quadrant 3: Urgent, Not Important (Bottom Left) - Blue -->
        <rect x="2" y="44" width="38" height="38" rx="4" fill="#5e81ac"/>
        <rect x="2" y="44" width="38" height="2" rx="1" fill="#81a1c1" opacity="0.5"/>
        <rect x="2" y="44" width="2" height="38" rx="1" fill="#81a1c1" opacity="0.3"/>
        
        <!-- Quadrant 4: Not Urgent, Not Important (Bottom Right) - Green -->
        <rect x="44" y="44" width="38" height="38" rx="4" fill="#a3be8c"/>
        <rect x="44" y="44" width="38" height="2" rx="1" fill="#b5cc9a" opacity="0.5"/>
        <rect x="44" y="44" width="2" height="38" rx="1" fill="#b5cc9a" opacity="0.3"/>
        
        <!-- Center divider lines with depth -->
        <rect x="40" y="0" width="4" height="84" rx="1" fill="#2e3440" opacity="0.8"/>
        <rect x="0" y="40" width="84" height="4" rx="1" fill="#2e3440" opacity="0.8"/>
        
        <!-- Highlight on center dividers for 3D effect -->
        <rect x="40" y="0" width="1" height="84" fill="#4c566a" opacity="0.4"/>
        <rect x="0" y="40" width="84" height="1" fill="#4c566a" opacity="0.4"/>
      </g>
      
      <!-- Bottom shadow edge for 3D depth -->
      <rect x="4" y="92" width="88" height="4" rx="2" fill="#000000" opacity="0.3"/>
      <rect x="92" y="4" width="4" height="88" rx="2" fill="#000000" opacity="0.2"/>
    </g>
    
    <!-- Subtle outer glow for modern look -->
    <rect x="12" y="12" width="104" height="104" rx="20" ry="20" 
          fill="none" stroke="#88c0d0" stroke-width="0.5" opacity="0.3"/>
  </g>
</svg>
